<svg width="161" height="431" viewBox="0 0 161 431" fill="none" xmlns="http://www.w3.org/2000/svg">
<path d="M76.7735 19.4745L64.254 155.472C62.9361 169.788 67.844 183.978 77.725 194.421L146.1 266.682C157.318 278.538 162.043 295.123 158.758 311.111L150.865 349.525C144.273 381.603 108.473 398.098 79.806 382.266L50.8633 366.282C25.3627 352.199 -4.80072 374.875 1.64304 403.284V403.284C9.45663 437.733 58.2445 438.54 67.1929 404.368L106.198 255.418C108.287 247.443 108.397 239.095 106.373 231.103C93.3663 179.743 68.2342 95.0655 39.4459 33.5332C32.1895 18.0234 50.4593 -3.87271 66.362 2.47643V2.47643C73.2136 5.21191 77.4498 12.1281 76.7735 19.4745Z" stroke="black"/>
</svg>
