<svg width="326" height="299" viewBox="0 0 326 299" fill="none" xmlns="http://www.w3.org/2000/svg">
<mask id="path-1-inside-1" fill="white">
<path d="M2.06219 167.192C13.9675 136.497 34.7073 110.023 61.659 91.1154C88.6108 72.2082 120.564 61.7177 153.478 60.9705C186.392 60.2233 218.788 69.253 246.57 86.9177C274.352 104.582 296.272 130.089 309.558 160.211L293.744 167.186C281.837 140.191 262.193 117.334 237.296 101.503C212.399 85.6725 183.366 77.5804 153.87 78.2501C124.374 78.9197 95.7384 88.3209 71.5852 105.265C47.432 122.209 28.8456 145.935 18.1765 173.442L2.06219 167.192Z"/>
</mask>
<path d="M2.06219 167.192C13.9675 136.497 34.7073 110.023 61.659 91.1154C88.6108 72.2082 120.564 61.7177 153.478 60.9705C186.392 60.2233 218.788 69.253 246.57 86.9177C274.352 104.582 296.272 130.089 309.558 160.211L293.744 167.186C281.837 140.191 262.193 117.334 237.296 101.503C212.399 85.6725 183.366 77.5804 153.87 78.2501C124.374 78.9197 95.7384 88.3209 71.5852 105.265C47.432 122.209 28.8456 145.935 18.1765 173.442L2.06219 167.192Z" stroke="#A32704" stroke-width="24" mask="url(#path-1-inside-1)"/>
</svg>
