<svg width="255" height="171" viewBox="0 0 255 171" fill="none" xmlns="http://www.w3.org/2000/svg">
<mask id="path-1-inside-1" fill="white">
<path d="M29.0248 0.804353C21.4261 30.6387 25.9902 62.2697 41.7132 88.7388C57.4361 115.208 83.0299 134.347 112.864 141.946C142.699 149.545 174.33 144.98 200.799 129.258C227.268 113.535 246.407 87.9408 254.006 58.1064L246.514 56.1982C239.421 84.0456 221.557 107.935 196.85 122.611C172.144 137.286 142.62 141.547 114.772 134.454C86.9251 127.361 63.0359 109.497 48.3601 84.7905C33.6843 60.0842 29.4242 30.5599 36.5168 2.71255L29.0248 0.804353Z"/>
</mask>
<path d="M29.0248 0.804353C21.4261 30.6387 25.9902 62.2697 41.7132 88.7388C57.4361 115.208 83.0299 134.347 112.864 141.946C142.699 149.545 174.33 144.98 200.799 129.258C227.268 113.535 246.407 87.9408 254.006 58.1064L246.514 56.1982C239.421 84.0456 221.557 107.935 196.85 122.611C172.144 137.286 142.62 141.547 114.772 134.454C86.9251 127.361 63.0359 109.497 48.3601 84.7905C33.6843 60.0842 29.4242 30.5599 36.5168 2.71255L29.0248 0.804353Z" stroke="#A32704" stroke-width="12" mask="url(#path-1-inside-1)"/>
</svg>
